<svg height="1486" width="720" xmlns="http://www.w3.org/2000/svg">
<rect height="1486" fill="#555" width="720"></rect>
<text fill="#7f7" font-family="Courier New" font-size="12" xml:space="preserve">
<tspan x="10" y="26">4 megabytes installed</tspan>
<tspan x="10" y="42"></tspan>
<tspan x="10" y="58">node_modules</tspan>
<tspan x="10" y="74">└─┬ gulp-tag-version@1.3.0 </tspan>
<tspan x="10" y="90">  ├─┬ gulp-git@0.3.6 </tspan>
<tspan x="10" y="106">  │ ├── any-shell-escape@0.1.1 </tspan>
<tspan x="10" y="122">  │ └─┬ through2@0.4.2 </tspan>
<tspan x="10" y="138">  │   ├─┬ readable-stream@1.0.34 </tspan>
<tspan x="10" y="154">  │   │ ├── core-util-is@1.0.2 </tspan>
<tspan x="10" y="170">  │   │ ├── inherits@2.0.3 </tspan>
<tspan x="10" y="186">  │   │ ├── isarray@0.0.1 </tspan>
<tspan x="10" y="202">  │   │ └── string_decoder@0.10.31 </tspan>
<tspan x="10" y="218">  │   └─┬ xtend@2.1.2 </tspan>
<tspan x="10" y="234">  │     └── object-keys@0.4.0 </tspan>
<tspan x="10" y="250">  ├─┬ gulp-util@2.2.20 </tspan>
<tspan x="10" y="266">  │ ├─┬ chalk@0.5.1 </tspan>
<tspan x="10" y="282">  │ │ ├── ansi-styles@1.1.0 </tspan>
<tspan x="10" y="298">  │ │ ├── escape-string-regexp@1.0.5 </tspan>
<tspan x="10" y="314">  │ │ ├─┬ has-ansi@0.1.0 </tspan>
<tspan x="10" y="330">  │ │ │ └── ansi-regex@0.2.1 </tspan>
<tspan x="10" y="346">  │ │ ├── strip-ansi@0.3.0 </tspan>
<tspan x="10" y="362">  │ │ └── supports-color@0.2.0 </tspan>
<tspan x="10" y="378">  │ ├─┬ dateformat@1.0.12 </tspan>
<tspan x="10" y="394">  │ │ ├── get-stdin@4.0.1 </tspan>
<tspan x="10" y="410">  │ │ └─┬ meow@3.7.0 </tspan>
<tspan x="10" y="426">  │ │   ├─┬ camelcase-keys@2.1.0 </tspan>
<tspan x="10" y="442">  │ │   │ └── camelcase@2.1.1 </tspan>
<tspan x="10" y="458">  │ │   ├── decamelize@1.2.0 </tspan>
<tspan x="10" y="474">  │ │   ├─┬ loud-rejection@1.6.0 </tspan>
<tspan x="10" y="490">  │ │   │ ├─┬ currently-unhandled@0.4.1 </tspan>
<tspan x="10" y="506">  │ │   │ │ └── array-find-index@1.0.2 </tspan>
<tspan x="10" y="522">  │ │   │ └── signal-exit@3.0.2 </tspan>
<tspan x="10" y="538">  │ │   ├── map-obj@1.0.1 </tspan>
<tspan x="10" y="554">  │ │   ├── minimist@1.2.0 </tspan>
<tspan x="10" y="570">  │ │   ├─┬ normalize-package-data@2.3.6 </tspan>
<tspan x="10" y="586">  │ │   │ ├── hosted-git-info@2.4.2 </tspan>
<tspan x="10" y="602">  │ │   │ ├─┬ is-builtin-module@1.0.0 </tspan>
<tspan x="10" y="618">  │ │   │ │ └── builtin-modules@1.1.1 </tspan>
<tspan x="10" y="634">  │ │   │ ├── semver@5.3.0 </tspan>
<tspan x="10" y="650">  │ │   │ └─┬ validate-npm-package-license@3.0.1 </tspan>
<tspan x="10" y="666">  │ │   │   ├─┬ spdx-correct@1.0.2 </tspan>
<tspan x="10" y="682">  │ │   │   │ └── spdx-license-ids@1.2.2 </tspan>
<tspan x="10" y="698">  │ │   │   └── spdx-expression-parse@1.0.4 </tspan>
<tspan x="10" y="714">  │ │   ├── object-assign@4.1.1 </tspan>
<tspan x="10" y="730">  │ │   ├─┬ read-pkg-up@1.0.1 </tspan>
<tspan x="10" y="746">  │ │   │ ├─┬ find-up@1.1.2 </tspan>
<tspan x="10" y="762">  │ │   │ │ ├── path-exists@2.1.0 </tspan>
<tspan x="10" y="778">  │ │   │ │ └─┬ pinkie-promise@2.0.1 </tspan>
<tspan x="10" y="794">  │ │   │ │   └── pinkie@2.0.4 </tspan>
<tspan x="10" y="810">  │ │   │ └─┬ read-pkg@1.1.0 </tspan>
<tspan x="10" y="826">  │ │   │   ├─┬ load-json-file@1.1.0 </tspan>
<tspan x="10" y="842">  │ │   │   │ ├── graceful-fs@4.1.11 </tspan>
<tspan x="10" y="858">  │ │   │   │ ├─┬ parse-json@2.2.0 </tspan>
<tspan x="10" y="874">  │ │   │   │ │ └─┬ error-ex@1.3.1 </tspan>
<tspan x="10" y="890">  │ │   │   │ │   └── is-arrayish@0.2.1 </tspan>
<tspan x="10" y="906">  │ │   │   │ ├── pify@2.3.0 </tspan>
<tspan x="10" y="922">  │ │   │   │ └─┬ strip-bom@2.0.0 </tspan>
<tspan x="10" y="938">  │ │   │   │   └── is-utf8@0.2.1 </tspan>
<tspan x="10" y="954">  │ │   │   └── path-type@1.1.0 </tspan>
<tspan x="10" y="970">  │ │   ├─┬ redent@1.0.0 </tspan>
<tspan x="10" y="986">  │ │   │ ├─┬ indent-string@2.1.0 </tspan>
<tspan x="10" y="1002">  │ │   │ │ └─┬ repeating@2.0.1 </tspan>
<tspan x="10" y="1018">  │ │   │ │   └─┬ is-finite@1.0.2 </tspan>
<tspan x="10" y="1034">  │ │   │ │     └── number-is-nan@1.0.1 </tspan>
<tspan x="10" y="1050">  │ │   │ └── strip-indent@1.0.1 </tspan>
<tspan x="10" y="1066">  │ │   └── trim-newlines@1.0.0 </tspan>
<tspan x="10" y="1082">  │ ├── lodash._reinterpolate@2.4.1 </tspan>
<tspan x="10" y="1098">  │ ├─┬ lodash.template@2.4.1 </tspan>
<tspan x="10" y="1114">  │ │ ├── lodash._escapestringchar@2.4.1 </tspan>
<tspan x="10" y="1130">  │ │ ├─┬ lodash.defaults@2.4.1 </tspan>
<tspan x="10" y="1146">  │ │ │ └── lodash._objecttypes@2.4.1 </tspan>
<tspan x="10" y="1162">  │ │ ├─┬ lodash.escape@2.4.1 </tspan>
<tspan x="10" y="1178">  │ │ │ ├─┬ lodash._escapehtmlchar@2.4.1 </tspan>
<tspan x="10" y="1194">  │ │ │ │ └── lodash._htmlescapes@2.4.1 </tspan>
<tspan x="10" y="1210">  │ │ │ └── lodash._reunescapedhtml@2.4.1 </tspan>
<tspan x="10" y="1226">  │ │ ├─┬ lodash.keys@2.4.1 </tspan>
<tspan x="10" y="1242">  │ │ │ ├── lodash._isnative@2.4.1 </tspan>
<tspan x="10" y="1258">  │ │ │ ├── lodash._shimkeys@2.4.1 </tspan>
<tspan x="10" y="1274">  │ │ │ └── lodash.isobject@2.4.1 </tspan>
<tspan x="10" y="1290">  │ │ ├── lodash.templatesettings@2.4.1 </tspan>
<tspan x="10" y="1306">  │ │ └── lodash.values@2.4.1 </tspan>
<tspan x="10" y="1322">  │ ├── minimist@0.2.0 </tspan>
<tspan x="10" y="1338">  │ ├─┬ multipipe@0.1.2 </tspan>
<tspan x="10" y="1354">  │ │ └─┬ duplexer2@0.0.2 </tspan>
<tspan x="10" y="1370">  │ │   └── readable-stream@1.1.14 </tspan>
<tspan x="10" y="1386">  │ ├─┬ through2@0.5.1 </tspan>
<tspan x="10" y="1402">  │ │ ├── readable-stream@1.0.34 </tspan>
<tspan x="10" y="1418">  │ │ └── xtend@3.0.0 </tspan>
<tspan x="10" y="1434">  │ └─┬ vinyl@0.2.3 </tspan>
<tspan x="10" y="1450">  │   └── clone-stats@0.0.1 </tspan>
<tspan x="10" y="1466">  └── map-stream@0.1.0</tspan>
</text>
</svg>
